<?xml version='1.0' encoding='utf-8'?>
<svg xmlns="http://www.w3.org/2000/svg" width="1442px" height="1030px" version="1.1" viewBox="-181 539 1442 1030"> <g fill="#b0e7fe"> <path d="m-181 538.31c-0.18388 0-0.3602 0.0731-0.49023 0.2031-0.13002 0.13-0.20306 0.3063-0.20306 0.4902l0.00101 1030c0 0.3829 0.31039 0.6932 0.69328 0.6932l1442 1e-3c0.1838 0 0.3602-0.073 0.4902-0.203s0.203-0.3064 0.203-0.4902l-1e-3 -1030c0-0.3829-0.3103-0.6933-0.6932-0.6933l-1442-1e-3z"/> </g> <g fill-opacity=".32549"> <path d="m1007.6 1439.5-4.3244 1.0496q-13.665 1.4096-50.723 2.5683-51.44 1.3938-68.747 1.5974-27.302 0.4851-60.452 0.9077-85.754 0.958-106.07 1.0159-37.331 0.2546-77.296 0.3982-79.931 0.2866-170.4 0.127-86.34-0.2232-157.31-0.8282-35.487-0.3025-67.132-0.7004-75.752-1.0789-86.292-1.4092-103.45-2.1797-97.562-5.0481 4.5304-1.4831 36.836-2.7012 15.605-0.6108 37.058-1.1586 58.751-1.3155 77.519-1.5032 12.836-0.2908 101.08-1.1712 36.014-0.3108 74.662-0.51 77.296-0.3982 165.13-0.3501 90.849 0.0742 165.44 0.6016 37.408 0.2546 70.974 0.605 80.553 0.9594 92.054 1.2656 56.36 0.9993 88.322 2.2331 35.238 1.2881 37.228 3.0108"/> </g> <g fill="#373e71"> <path d="m238 726.14 257.78-1.7e-4 257.78 8.4e-4q1e-4 356.65 1e-4 713.31-257.78 0-515.55 0 3.4e-4 -356.66 5.5e-4 -713.31z"/> </g> <g fill="#f5f5f5"> <path d="m294.46 1373.7c-19.317 0-34.989-15.671-34.989-34.998l5.2e-4 -559.95c0-19.326 15.672-34.989 34.989-34.99l402.48-0.0022c19.326 0.0017 34.989 15.664 34.989 34.991l3.5e-4 432.88-168.69 162.07-268.78-0.0022z"/> </g> <g fill="#f00"> <path d="m474.79 625.2 1.7e-4 0.00155v9e-4 -0.00245l-1.7e-4 0.00155 1.7e-4 -0.00155v0.00245q0-0.00245-1.7e-4 -0.00245z"/> </g> <g fill="#f5f5f5"> <path d="m563.04 1373.8 133.7 0.0029c19.326-0.0022 34.99-15.665 34.99-34.991l1e-4 -127.08-168.69 162.07z"/> </g> <g fill="#3c464f"> <path d="m343.52 690.42 152.25 9.1e-4 152.25-6.5e-4q0 32.566 1.5e-4 65.132-152.25 9e-4 -304.5 0.00155 0-32.567 0-65.134z"/> </g> <g fill="#3f50b5"> <path d="m404.28 1019.4c0 20.302-18.603 36.032-40.594 36.032-21.991 0-40.594-15.731-40.594-36.032 0-20.302 18.603-36.032 40.594-36.032 21.991 0 40.594 15.731 40.594 36.032m-6.7563 0c0-15.767-14.721-29.276-33.838-29.276-19.117 0-33.838 13.509-33.838 29.276s14.721 29.276 33.838 29.276c19.117 0 33.838-13.509 33.838-29.276z"/> </g> <g fill="#3f50b5"> <path d="m533.51 915.22c0 20.302-18.603 36.032-40.594 36.032-21.991 0-40.594-15.731-40.594-36.032 0-20.302 18.603-36.032 40.594-36.032 21.991 0 40.594 15.731 40.594 36.032m-6.7562 0c0-15.767-14.721-29.276-33.838-29.276-19.117 0-33.838 13.509-33.838 29.276 0 15.767 14.721 29.276 33.838 29.276 19.117 0 33.838-13.509 33.838-29.276z"/> <path d="m455.03 991.74 80.041 2.6e-4c1.8658 0 3.3782 1.5125 3.3782 3.3781v57.583c0 1.8656-1.5124 3.3781-3.3782 3.3781l-80.041 2e-4c-0.89594 0-1.7552-0.3559-2.3887-0.9892-0.63355-0.6336-0.98938-1.493-0.98938-2.3888v-57.584c0-0.8959 0.35583-1.7552 0.98938-2.3886 0.63354-0.63348 1.4928-0.98945 2.3887-0.98945m0 6.7562 3.3781-3.3781v57.584l-3.3781-3.3781 80.041-3e-4 -3.3781 3.3781v-57.583l3.3781 3.3781-80.041-3e-4z"/> <path d="m583.28 881.59 41.974 3.6e-4c1.8656 0 3.378 1.5124 3.378 3.3781v53.388c0 1.8657-1.5124 3.3781-3.378 3.3781l-41.974 4.4e-4c-0.89596 0-1.7552-0.3559-2.3887-0.98945-0.63354-0.63355-0.98943-1.4928-0.98943-2.3888v-53.388c0-0.896 0.35589-1.7552 0.98943-2.3888 0.6335-0.63354 1.4927-0.98944 2.3887-0.98944m-1e-4 6.7563 3.3782-3.3781v53.388l-3.3782-3.378 41.974-3.7e-4 -3.3781 3.3781v-53.388l3.3781 3.3782-41.974-3.5e-4z"/> <path d="m634.43 1022.8c0 20.902-12.366 39.829-29.704 39.829s-29.704-18.928-29.704-39.829 12.366-39.829 29.704-39.829 29.704 18.928 29.704 39.829m-6.7563 0c0-19.361-11.207-33.073-22.948-33.073-11.741 0-22.948 13.711-22.948 33.073 0 19.362 11.207 33.073 22.948 33.073 11.741 0 22.948-13.711 22.948-33.073z"/> <path d="m458.54 1098.4 107.51 5e-4c1.8658 0 3.3781 1.5127 3.3781 3.3781v53.756c0 1.8654-1.5124 3.3781-3.3781 3.3781l-107.51 5e-4c-0.89592 0-1.7551-0.3559-2.3887-0.9892-0.63348-0.6336-0.98938-1.493-0.98938-2.389v-53.757c0-0.8957 0.3559-1.7551 0.98938-2.3887 0.63355-0.6333 1.4928-0.9892 2.3887-0.9892m0 6.7561 3.3781-3.3782v53.757l-3.3781-3.3779 107.51-7e-4 -3.3781 3.3782v-53.756l3.3781 3.3782-107.51-7e-4z"/> <path d="m489.41 956.75 3.4187 4e-5 3.4188 6e-5q0 15.844 0 31.689-3.4188 6e-5 -6.8374 1e-4 0-15.844 0-31.689"/> <path d="m492.8 1061.3h6.8374v31.689h-6.8374v-31.689"/> <path d="m575.18 913.07-1.4e-4 6.8374h-31.689l-7e-5 -6.8374h31.689"/> <path d="m573.52 1023.2-2e-4 6.8376q-15.844 0-31.689 0 0-3.4188-6e-5 -6.8376 15.844 0 31.689 0"/> <path d="m602.91 946.54 6.8374 1e-4v31.689l-6.8374 1e-4v-31.689"/> <path d="m441.37 1015.1-6e-5 3.4186-6e-5 3.4188q-15.844 0-31.688 0-1.2e-4 -3.4188-1.8e-4 -6.8374 15.844 0 31.689 0"/> <path d="m483.34 1205.9 41.974 5e-4c1.8656 0 3.378 1.5124 3.378 3.3779v53.388c0 1.8657-1.5124 3.3782-3.378 3.3782l-41.974 5e-4c-0.89586 0-1.7552-0.356-2.3887-0.9895-0.63355-0.6336-0.98945-1.4927-0.98945-2.3887v-53.388c0-0.896 0.3559-1.7554 0.98945-2.3889 0.63348-0.6336 1.4928-0.9895 2.3887-0.9895m-6e-5 6.7563 3.3782-3.3779v53.388l-3.3782-3.3782 41.974-2e-4 -3.3781 3.3779v-53.388l3.3781 3.3784-41.974-5e-4z"/> <path d="m501.06 1165.6h3.4186 3.4188q0 15.844 0 31.688-3.4188 0-6.8374 3e-4 0-15.844 0-31.689"/> </g> <g fill="#fdbd99"> <path d="m732.81 1072.2-2.1568-2.6887q-9.72-12.159-14.443-16.365-5.9744-5.494-9.7053-5.3621-1.8951 0.0888-2.6642 0.5127-1.0158 0.4287-1.8889 1.1442-2.6296 2.2854-3.8585 5.908-2.5264 8.4036 1.5829 14.212 1.5899 2.2669 4.5441 3.0867 2.1142 0.6712 7.3923 0.1649l13.667 10.872 7.531-11.484z"/> </g> <g> <path d="m853.84 940.56q5.172-0.43725 9.1317 1.4441 1.8789 0.82796 4.4469 2.4128 9.8139 6.0895 11.016 7.119 8.6526 6.1136 9.8574 14.239 1.8801 11.427-5.0589 25.311-5.4124 11.109-17.005 17.409l-24.976-49.437-2.6188-7.1058q-3.3462-2.4677-3.4565-3.9954-0.33929-2.5541 3.6795-4.1216 7.642-2.5346 14.925-3.2715z"/> </g> <g fill="#fdbd99"> <path d="m840.67 954.94 2.9099 0.4087 9.3596 3.9902q-0.819 4.4118 0.7261 5.7709 0.59143 0.6066 1.5009 0.9712 5.2041 1.535 5.8689 2.0593 1.7204 0.94424 2.5119 2.3248 1.1478 1.7969 0.8994 5.7074 0.0612 2.1632-2.4625 13.874-0.27935 1.995 0.23066 2.4076 0.58364 0.65965 3.3783-1.9229-0.44096-5.5274 2.3809-6.4881 2.5208-0.991 5.1536-0.2971 2.4467 0.7661 2.8426 2.6669 0.9687 2.7526-4.484 13.386 3.0547 1.313 2.8507 2.2818 0.161 0.8323-1.7118 3.4706l-2.0992 8.1274 1.6425 5.3451-14.767 17.843-18.106-15.065 0.86518-9.6665q-0.77544 1.4516-11.176 0.57398-3.8296-0.48548-4.2443-2.9582l-0.5411-5.3126 0.82764-6.9244 2.6503-7.6938q-6.0785-2.4174-6.0457-6.5969 0.11926-0.51095 0.8231-0.9232 1.2865-0.2782 4.4864-1.9336 2.8166-2.9093 3.8836-4.5538 1.2433-1.851 1.8445-3.9844 0.50293-1.4273 1.1748-6.7488 0.26776-1.2215 0.75799-2.2467 1.0302-2.3665 5.9983-7.8129z"/> </g> <g fill="#fefefe"> <path d="m838.67 1017.7 18.176 6.1253 15.609-6.9722 21.342 15.51 1.7265 94.416-19.855 59.352-33.124 5.4312-42.26-23.568 11.4-102.54 17.302-38.515 9.6436-9.1976z"/> </g> <g fill="#184773"> <path d="m854.62 1025.8 4.3944 6.4116-3.6933 4.9426-5.0282 109.25-8.4516 11.297-10.358-7.7696 18.854-112.89-1.4291-6.8206 5.658-4.3839z"/> </g> <g> <path d="m884.62 1345.6q16.007-1.0039 18.179-0.6455l1.2002 13.311-6.6396 1.0921q2.2579 12.466 4.2187 17.899 0.9191 2.6573 1.9637 4.7503l4.4025 8.1245q0.81324 1.7178 1.1751 3.2998 1.0785 3.8296-1.8225 9.7046 0.2028 0.4626-10.361 16.845-1.7434 2.4309-3.9322 0.9734-2.3034-1.7615-2.56-4.6973-0.0702-0.9211 0.20955-2.282 1.6598-5.8317 1.6092-6.5961 0.2475-1.9683-0.2222-4.2532-0.53835-3.5706-5.4404-13.464-1.881-3.5268-4.04-4.97-0.84888-0.6081-1.8984-1.1638-4.7586-2.2756-5.8164-2.9443-2.0531-1.167-5.5941-3.5032l15.341-31.422z"/> </g> <g fill="#0e0701"> <path d="m853.27 1389 14.741 11.935q2.84 6.9257 4.0138 16.137 1.2896 10.104 0.16715 15.565-1.4121 7.7569-9.9704 10.538-5.1596 1.6621-9.2256 0.9619-3.2227-0.5903-4.4162-3.5405-1.9208-3.8809-0.6041-17.613 0.53414-6.0815 2.2766-19.472l3.0165-14.501z"/> </g> <g fill="#fff" fill-opacity=".99608"> <path d="m837.77 972.28v8.7e-4l-0.61584 2.8248q2.6041 0.10134 5.208 0.2025l-4.5922-3.0282z"/> </g> <g fill-opacity=".99608"> <path d="m837.86 972.26-0.09179 0.0989q-0.28507 0.29505-0.50237 0.6103-0.16334 0.2683-0.1774 0.32733-0.0463 0.11212-0.07206 0.23102-0.02634 0.11935-0.0315 0.2442l-8.4e-4 0.1261q0.00316 0.12725 0.02135 0.25909 0.04195 0.32866 0.23115 0.95366l1.3505-1.0868-0.72704-1.7638z"/> <path d="m852.76 953.4v8.5e-4 -8.5e-4 8.5e-4z"/> </g> <g fill="#863608" fill-opacity=".99608"> <path d="m838.1 970.17 0.3416 0.02653q1.0336 0.07257 1.9761 0.20997 1.0306 0.17395 1.4776 0.3644 0.49065 0.1812 1.0268 0.5572 0.08875 0.05416 0.46454 0.3701 0.224 0.19084 0.7016 0.6678l-5.9882-2.196z"/> <path d="m844.2 962.72v8.7e-4l-5.5e-4 0.00133 5.5e-4 -0.0022z"/> </g> <g fill="#fff" fill-opacity=".99608"> <path d="m825.82 995.21-0.48035 1.394q2.7885 0.0062 7.6995-0.2718-3.0029-0.22685-4.4693-0.4583-1.4438-0.2477-1.6708-0.3297-0.5184-0.1308-0.97175-0.29596-0.04468-0.01648-0.08899-0.034-0.00606-0.0022-0.01216-0.00464z"/> </g> <g fill="#fdbd99"> <path d="m703.67 1048.6 0.8436 0.831q2.6209 2.4727 4.4264 5.125 0.57166 0.8908 0.96204 1.8207l0.33396 0.943 0.2204 0.968 0.09567 0.995q0.01613 2.5175-1.2946 5.327-1.642 3.5069-4.8717 8.221l-4.6818-9.0686 3.9661-15.162z"/> </g> <g> <path d="m713.96 1083.7 3.6796-26.239-10.921-1.9518-5.1784 25.573 12.413 2.616"/> <path d="m714.65 1117.5 1.7181-34.008-16.336-4.048-0.05926-0.0026-10.038 36.01 24.69 2.0461"/> <path d="m647.3 1446.3 8.4415-16.478-10.65-1.8821 2.2068 18.353"/> </g> <g fill="#69d2f4"> <path d="m655.91 1430.8 21.481-72.946-27.705-4.5613-5.7623 75.24 0.0174 0.1091 11.881 2.1421"/> </g> <g> <path d="m681.47 1336.1 35.9-220.16-26.858-4.3791-1.7178-0.2806-0.06826 0.3614-35.838 219.75 28.564 4.7"/> <path d="m663.16 1195.3 2.46 0.393 2.4602 0.3938q6.769-42.27 13.538-84.542-2.46-0.3945-4.9205-0.7885-6.7687 42.271-13.537 84.543"/> <path d="m675.77 1122.4 10.478 1.678 10.479 1.6773q0.43126-2.6952 0.8628-5.39-10.478-1.6785-20.956-3.3569-0.4315 2.696-0.86326 5.3916"/> </g> <g fill="#205267"> <path d="m836.45 1246.9-10.128 46.858 24.519 15.107-4.0993-57.71-2.7254-37.265m-4.5784-193.38v0.0011 8.5e-4l2e-4 -0.00105v4.4e-4l-1.6318 15.845-4.9213 47.796-5.7173 75.121c6.3212 1.6726 8.4994 6.5459 33.965 5.7837l23.816 0.7946 15.541-4.0617-16.225 79.549c-3.1719 44.354-4.2485 78.145-3.2303 101.37l5.2706 2.9211c-7.2501 25.805-12.01 44.408-14.281 55.808-3.9493 4.4319-11.623 3.7656-23.018-1.9987-3.7531-12.036-3.1148-25.457 1.9164-40.262l-6.016-8.0518-47.34-38.803-7.0699-10.4c-2.859-3.7319-1.0705-39.115 5.3638-106.15l-15.373-6.2105 20.51-98.524c-0.8622-0.4807-9.5475 7.9509-26.056 25.293l-9.6591 2.7292c-28.405-19.472-44.562-31.72-48.471-36.744l5.9694-7.9646 7.0858-10.672 33.587 26.446c13.732-9.073 27.046-29.806 39.94-62.198 20.819-6.3154 32.704-9.7816 35.653-10.4l0.3938 2.9757 2e-4 9e-4 -2e-4 -9e-4v0.0011z"/> </g> <g fill="#fff"> <path d="m904.19 1152 5.4508-0.0757 6.5438-2.0842 10.187 13.745-6.0779 0.2007-2.7465-1.3362-10.966 3.6502-2.3909-14.094z"/> </g> <g fill="#205267"> <path d="m871.58 1016.6 9.1703 5.145 35.603 12.225 12.944 20.241 23.634 24.679 10.531 13.267c1.5111 3.3882 2.3411 6.4558 2.6202 9.1897 0.5868 5.7366-1.8659 12.959-7.2721 21.812-5.3132 8.6983-16.086 23.258-32.531 43.55l-16.821-19.024 9.9088-7.073 12.113-14.809 11.169-19.003-24.356-25.856-5.7949-6.6574-12.807 82.365-17.249-2.4544-19.01 18.067 5.0299-72.175 1.48-39.317 1.6559-43.987z"/> </g> <g fill="#fdbd99"> <path d="m866.99 1155.9q7.7466-6.0959 12.03-7.5666 4.3989-1.7371 9.8352-0.6079 3.4373 0.6311 10.262 3.3337l8.731 0.8196 3.114 12.784-17.702 8.1657-17.964 0.9891-7.5404-7.7193-0.76315-10.171z"/> </g> <g fill="#205267"> <path d="m898.41 1171.6 1.1033 16.853-0.35901 15.191-29.589-3.0799 28.817-28.936z"/> </g> <g fill="#7d3507" fill-opacity=".07451"> <path d="m891.67 1146q-0.8588 0.6252 5.0112 3.487l-4.221-2.3571 8.0785 4.1313 7.3111 0.6863 0.0158 0.0635 1.7717-0.0247 2.7986-0.8913-2.9747-3.3641 6.5698-4.6897 0.00155 0.0013q2.6065 3.2058 5.5811 9.1799l-8.4304 4.0264-46.118 3.2067 0.02846-3.1799 3.4568-7.4387q3.2582 1.2302 2.2606 1.5344 9.954-3.3996 12.749-7.4968l3.1697 1.9023z"/> </g> <g fill="#3f50b5"> <path d="m655.76 1300.9 16.555 2.7446 16.555 2.7447q-5.5959 33.76-11.192 67.519-16.555-2.7437-33.11-5.4876l11.192-67.521"/> <path d="m671.36 1238.3-5e-5 2e-4v2e-4 -2e-4l5e-5 -2e-4 -5e-5 2e-4v2e-4q0-2e-4 5e-5 -4e-4"/> </g> </svg>